<?xml version="1.0" encoding="UTF-8" standalone="no"?>
<!-- Created with Inkscape (http://www.inkscape.org/) -->

<svg
   xmlns:dc="http://purl.org/dc/elements/1.1/"
   xmlns:cc="http://creativecommons.org/ns#"
   xmlns:rdf="http://www.w3.org/1999/02/22-rdf-syntax-ns#"
   xmlns:svg="http://www.w3.org/2000/svg"
   xmlns="http://www.w3.org/2000/svg"
   xmlns:sodipodi="http://sodipodi.sourceforge.net/DTD/sodipodi-0.dtd"
   xmlns:inkscape="http://www.inkscape.org/namespaces/inkscape"
   width="278.77539"
   height="96.599312"
   id="svg2"
   version="1.1"
   inkscape:version="0.48.4 r9939"
   sodipodi:docname="systemstructure.svg"
   inkscape:export-filename="/tmp/l/bitbucket/fs_sosp_2015_copy/doc/sosp_2015/pics/systemstructure.png"
   inkscape:export-xdpi="180"
   inkscape:export-ydpi="180">
  <defs
     id="defs4">
    <marker
       inkscape:stockid="Arrow2Mstart"
       orient="auto"
       refY="0"
       refX="0"
       id="Arrow2Mstart"
       style="overflow:visible">
      <path
         id="path3811"
         style="fill-rule:evenodd;stroke-width:0.625;stroke-linejoin:round"
         d="M 8.7185878,4.0337352 -2.2072895,0.01601326 8.7185884,-4.0017078 c -1.7454984,2.3720609 -1.7354408,5.6174519 -6e-7,8.035443 z"
         transform="scale(0.6,0.6)"
         inkscape:connector-curvature="0" />
    </marker>
    <marker
       inkscape:stockid="Arrow2Mend"
       orient="auto"
       refY="0"
       refX="0"
       id="Arrow2Mend"
       style="overflow:visible">
      <path
         id="path3814"
         style="fill-rule:evenodd;stroke-width:0.625;stroke-linejoin:round"
         d="M 8.7185878,4.0337352 -2.2072895,0.01601326 8.7185884,-4.0017078 c -1.7454984,2.3720609 -1.7354408,5.6174519 -6e-7,8.035443 z"
         transform="scale(-0.6,-0.6)"
         inkscape:connector-curvature="0" />
    </marker>
    <marker
       inkscape:stockid="Arrow2Mend"
       orient="auto"
       refY="0"
       refX="0"
       id="Arrow2Mend-3"
       style="overflow:visible">
      <path
         inkscape:connector-curvature="0"
         id="path3814-2"
         style="fill-rule:evenodd;stroke-width:0.625;stroke-linejoin:round"
         d="M 8.7185878,4.0337352 -2.2072895,0.01601326 8.7185884,-4.0017078 c -1.7454984,2.3720609 -1.7354408,5.6174519 -6e-7,8.035443 z"
         transform="scale(-0.6,-0.6)" />
    </marker>
    <marker
       inkscape:stockid="Arrow2Mend"
       orient="auto"
       refY="0"
       refX="0"
       id="Arrow2Mend-4"
       style="overflow:visible">
      <path
         inkscape:connector-curvature="0"
         id="path3814-4"
         style="fill-rule:evenodd;stroke-width:0.625;stroke-linejoin:round"
         d="M 8.7185878,4.0337352 -2.2072895,0.01601326 8.7185884,-4.0017078 c -1.7454984,2.3720609 -1.7354408,5.6174519 -6e-7,8.035443 z"
         transform="scale(-0.6,-0.6)" />
    </marker>
    <marker
       inkscape:stockid="Arrow2Mend"
       orient="auto"
       refY="0"
       refX="0"
       id="Arrow2Mend-0"
       style="overflow:visible">
      <path
         inkscape:connector-curvature="0"
         id="path3814-45"
         style="fill-rule:evenodd;stroke-width:0.625;stroke-linejoin:round"
         d="M 8.7185878,4.0337352 -2.2072895,0.01601326 8.7185884,-4.0017078 c -1.7454984,2.3720609 -1.7354408,5.6174519 -6e-7,8.035443 z"
         transform="scale(-0.6,-0.6)" />
    </marker>
    <marker
       inkscape:stockid="Arrow2Mend"
       orient="auto"
       refY="0"
       refX="0"
       id="Arrow2Mend-9"
       style="overflow:visible">
      <path
         inkscape:connector-curvature="0"
         id="path3814-8"
         style="fill-rule:evenodd;stroke-width:0.625;stroke-linejoin:round"
         d="M 8.7185878,4.0337352 -2.2072895,0.01601326 8.7185884,-4.0017078 c -1.7454984,2.3720609 -1.7354408,5.6174519 -6e-7,8.035443 z"
         transform="scale(-0.6,-0.6)" />
    </marker>
    <marker
       inkscape:stockid="Arrow2Mend"
       orient="auto"
       refY="0"
       refX="0"
       id="Arrow2Mend-6"
       style="overflow:visible">
      <path
         inkscape:connector-curvature="0"
         id="path3814-9"
         style="fill-rule:evenodd;stroke-width:0.625;stroke-linejoin:round"
         d="M 8.7185878,4.0337352 -2.2072895,0.01601326 8.7185884,-4.0017078 c -1.7454984,2.3720609 -1.7354408,5.6174519 -6e-7,8.035443 z"
         transform="scale(-0.6,-0.6)" />
    </marker>
    <marker
       inkscape:stockid="Arrow2Mend"
       orient="auto"
       refY="0"
       refX="0"
       id="Arrow2Mend-5"
       style="overflow:visible">
      <path
         inkscape:connector-curvature="0"
         id="path3814-6"
         style="fill-rule:evenodd;stroke-width:0.625;stroke-linejoin:round"
         d="M 8.7185878,4.0337352 -2.2072895,0.01601326 8.7185884,-4.0017078 c -1.7454984,2.3720609 -1.7354408,5.6174519 -6e-7,8.035443 z"
         transform="scale(-0.6,-0.6)" />
    </marker>
    <marker
       inkscape:stockid="Arrow2Mstart"
       orient="auto"
       refY="0"
       refX="0"
       id="Arrow2Mstart-9"
       style="overflow:visible">
      <path
         inkscape:connector-curvature="0"
         id="path3811-2"
         style="fill-rule:evenodd;stroke-width:0.625;stroke-linejoin:round"
         d="M 8.7185878,4.0337352 -2.2072895,0.01601326 8.7185884,-4.0017078 c -1.7454984,2.3720609 -1.7354408,5.6174519 -6e-7,8.035443 z"
         transform="scale(0.6,0.6)" />
    </marker>
    <marker
       inkscape:stockid="Arrow2Mend"
       orient="auto"
       refY="0"
       refX="0"
       id="Arrow2Mend-5-7"
       style="overflow:visible">
      <path
         inkscape:connector-curvature="0"
         id="path3814-6-6"
         style="fill-rule:evenodd;stroke-width:0.625;stroke-linejoin:round"
         d="M 8.7185878,4.0337352 -2.2072895,0.01601326 8.7185884,-4.0017078 c -1.7454984,2.3720609 -1.7354408,5.6174519 -6e-7,8.035443 z"
         transform="scale(-0.6,-0.6)" />
    </marker>
    <marker
       inkscape:stockid="Arrow2Mend"
       orient="auto"
       refY="0"
       refX="0"
       id="Arrow2Mend-5-0"
       style="overflow:visible">
      <path
         inkscape:connector-curvature="0"
         id="path3814-6-2"
         style="fill-rule:evenodd;stroke-width:0.625;stroke-linejoin:round"
         d="M 8.7185878,4.0337352 -2.2072895,0.01601326 8.7185884,-4.0017078 c -1.7454984,2.3720609 -1.7354408,5.6174519 -6e-7,8.035443 z"
         transform="scale(-0.6,-0.6)" />
    </marker>
    <marker
       inkscape:stockid="Arrow2Mend"
       orient="auto"
       refY="0"
       refX="0"
       id="Arrow2Mend-5-3"
       style="overflow:visible">
      <path
         inkscape:connector-curvature="0"
         id="path3814-6-8"
         style="fill-rule:evenodd;stroke-width:0.625;stroke-linejoin:round"
         d="M 8.7185878,4.0337352 -2.2072895,0.01601326 8.7185884,-4.0017078 c -1.7454984,2.3720609 -1.7354408,5.6174519 -6e-7,8.035443 z"
         transform="scale(-0.6,-0.6)" />
    </marker>
    <marker
       inkscape:stockid="Arrow2Mend"
       orient="auto"
       refY="0"
       refX="0"
       id="Arrow2Mend-5-5"
       style="overflow:visible">
      <path
         inkscape:connector-curvature="0"
         id="path3814-6-9"
         style="fill-rule:evenodd;stroke-width:0.625;stroke-linejoin:round"
         d="M 8.7185878,4.0337352 -2.2072895,0.01601326 8.7185884,-4.0017078 c -1.7454984,2.3720609 -1.7354408,5.6174519 -6e-7,8.035443 z"
         transform="scale(-0.6,-0.6)" />
    </marker>
    <marker
       inkscape:stockid="Arrow2Mend"
       orient="auto"
       refY="0"
       refX="0"
       id="Arrow2Mend-5-2"
       style="overflow:visible">
      <path
         inkscape:connector-curvature="0"
         id="path3814-6-3"
         style="fill-rule:evenodd;stroke-width:0.625;stroke-linejoin:round"
         d="M 8.7185878,4.0337352 -2.2072895,0.01601326 8.7185884,-4.0017078 c -1.7454984,2.3720609 -1.7354408,5.6174519 -6e-7,8.035443 z"
         transform="scale(-0.6,-0.6)" />
    </marker>
    <marker
       inkscape:stockid="Arrow2Mend"
       orient="auto"
       refY="0"
       refX="0"
       id="Arrow2Mend-5-36"
       style="overflow:visible">
      <path
         inkscape:connector-curvature="0"
         id="path3814-6-26"
         style="fill-rule:evenodd;stroke-width:0.625;stroke-linejoin:round"
         d="M 8.7185878,4.0337352 -2.2072895,0.01601326 8.7185884,-4.0017078 c -1.7454984,2.3720609 -1.7354408,5.6174519 -6e-7,8.035443 z"
         transform="scale(-0.6,-0.6)" />
    </marker>
    <marker
       inkscape:stockid="Arrow2Mend"
       orient="auto"
       refY="0"
       refX="0"
       id="Arrow2Mend-5-79"
       style="overflow:visible">
      <path
         inkscape:connector-curvature="0"
         id="path3814-6-29"
         style="fill-rule:evenodd;stroke-width:0.625;stroke-linejoin:round"
         d="M 8.7185878,4.0337352 -2.2072895,0.01601326 8.7185884,-4.0017078 c -1.7454984,2.3720609 -1.7354408,5.6174519 -6e-7,8.035443 z"
         transform="scale(-0.6,-0.6)" />
    </marker>
  </defs>
  <sodipodi:namedview
     id="base"
     pagecolor="#ffffff"
     bordercolor="#666666"
     borderopacity="1.0"
     inkscape:pageopacity="0.0"
     inkscape:pageshadow="2"
     inkscape:zoom="4.6789975"
     inkscape:cx="115.93424"
     inkscape:cy="41.001557"
     inkscape:document-units="px"
     inkscape:current-layer="layer1"
     showgrid="true"
     inkscape:window-width="1680"
     inkscape:window-height="1008"
     inkscape:window-x="0"
     inkscape:window-y="20"
     inkscape:window-maximized="1"
     inkscape:snap-global="false"
     fit-margin-top="0"
     fit-margin-left="0"
     fit-margin-right="0"
     fit-margin-bottom="0">
    <inkscape:grid
       type="xygrid"
       id="grid4027"
       empspacing="5"
       visible="true"
       enabled="true"
       snapvisiblegridlinesonly="true"
       originx="-4.4131966px"
       originy="-948.38787px" />
  </sodipodi:namedview>
  <metadata
     id="metadata7">
    <rdf:RDF>
      <cc:Work
         rdf:about="">
        <dc:format>image/svg+xml</dc:format>
        <dc:type
           rdf:resource="http://purl.org/dc/dcmitype/StillImage" />
        <dc:title />
      </cc:Work>
    </rdf:RDF>
  </metadata>
  <g
     inkscape:label="Layer 1"
     inkscape:groupmode="layer"
     id="layer1"
     transform="translate(-4.4131966,-7.375)">
    <rect
       style="fill:none;stroke:#000000;stroke-width:1px;stroke-linecap:butt;stroke-linejoin:miter;stroke-opacity:1"
       id="rect2985"
       width="85"
       height="20"
       x="125.52258"
       y="82.654961"
       ry="0" />
    <flowRoot
       xml:space="preserve"
       id="flowRoot3792"
       style="font-size:40px;font-style:normal;font-weight:normal;line-height:125%;letter-spacing:0px;word-spacing:0px;fill:#000000;fill-opacity:1;stroke:none;font-family:Sans"
       transform="translate(45.522572,-29.707218)"><flowRegion
         id="flowRegion3794"><rect
           id="rect3796"
           width="151.52289"
           height="124.24876"
           x="59.598999"
           y="63.42284" /></flowRegion><flowPara
         id="flowPara3798" /></flowRoot>    <text
       xml:space="preserve"
       style="font-size:12px;font-style:normal;font-variant:normal;font-weight:normal;font-stretch:normal;text-align:center;line-height:125%;letter-spacing:0px;word-spacing:0px;writing-mode:lr-tb;text-anchor:middle;fill:#000000;fill-opacity:1;stroke:none;font-family:Arial;-inkscape-font-specification:Arial"
       x="170.52257"
       y="97.654961"
       id="text3755-1"
       sodipodi:linespacing="125%"><tspan
         sodipodi:role="line"
         x="170.52257"
         y="97.654961"
         id="tspan3759-9">SibylFS</tspan></text>
    <path
       id="path5296"
       d="m 106.5834,61.283397 v 0.8928 q 0,0.1953 -0.12555,0.32085 -0.12555,0.12555 -0.32085,0.12555 h -9.820801 q -0.1953,0 -0.32085,-0.12555 -0.12555,-0.12555 -0.12555,-0.32085 v -0.8928 q 0,-0.1953 0.12555,-0.32085 0.12555,-0.12555 0.32085,-0.12555 H 106.137 q 0.1953,0 0.32085,0.12555 0.12555,0.12555 0.12555,0.32085 z m 0,-3.571203 v 0.892803 q 0,0.1953 -0.12555,0.32085 -0.12555,0.12555 -0.32085,0.12555 h -9.820801 q -0.1953,0 -0.32085,-0.12555 -0.12555,-0.12555 -0.12555,-0.32085 v -0.892803 q 0,-0.1953 0.12555,-0.32085 0.12555,-0.12555 0.32085,-0.12555 H 106.137 q 0.1953,0 0.32085,0.12555 0.12555,0.12555 0.12555,0.32085 z M 94.084199,66.193787 H 108.369 V 55.480194 h -5.8032 q -0.558,0 -0.9486,-0.3906 -0.3906,-0.3906 -0.3906,-0.9486 v -5.8032 H 94.084199 V 66.193787 z M 103.0122,53.694594 h 5.2452 q -0.1395,-0.40455 -0.3069,-0.57195 l -4.36635,-4.36635 q -0.1674,-0.1674 -0.57195,-0.3069 v 5.2452 z m 7.1424,0.4464 v 12.499193 q 0,0.558 -0.3906,0.9486 -0.3906,0.3906 -0.9486,0.3906 H 93.637799 q -0.558,0 -0.9486,-0.3906 -0.3906,-0.3906 -0.3906,-0.9486 V 47.891394 q 0,-0.558 0.3906,-0.9486 0.3906,-0.3906 0.9486,-0.3906 h 8.928001 q 0.558,0 1.2276,0.279 0.6696,0.279 1.0602,0.6696 l 4.3524,4.3524 q 0.3906,0.3906 0.6696,1.0602 0.279,0.6696 0.279,1.2276 z"
       inkscape:connector-curvature="0" />
    <text
       xml:space="preserve"
       style="font-size:12px;font-style:normal;font-variant:normal;font-weight:normal;font-stretch:normal;text-align:center;line-height:125%;letter-spacing:0px;word-spacing:0px;writing-mode:lr-tb;text-anchor:middle;fill:#000000;fill-opacity:1;stroke:none;font-family:Arial;-inkscape-font-specification:Arial"
       x="55.522572"
       y="62.654964"
       id="text3755-1-3"
       sodipodi:linespacing="125%"><tspan
         sodipodi:role="line"
         x="55.522572"
         y="62.654964"
         id="tspan5353">Test scripts</tspan></text>
    <rect
       style="fill:none;stroke:#000000;stroke-width:1px;stroke-linecap:butt;stroke-linejoin:miter;stroke-opacity:1"
       id="rect2985-7"
       width="85"
       height="20"
       x="125.78376"
       y="47.513737"
       ry="0" />
    <text
       xml:space="preserve"
       style="font-size:12px;font-style:normal;font-variant:normal;font-weight:normal;font-stretch:normal;text-align:center;line-height:125%;letter-spacing:0px;word-spacing:0px;writing-mode:lr-tb;text-anchor:middle;fill:#000000;fill-opacity:1;stroke:none;font-family:Arial;-inkscape-font-specification:Arial"
       x="167.65977"
       y="62.654964"
       id="text3755-1-6"
       sodipodi:linespacing="125%"><tspan
         sodipodi:role="line"
         x="167.65977"
         y="62.654964"
         id="tspan3759-9-2">Test executor</tspan></text>
    <path
       id="path5296-9"
       d="m 239.38856,62.565739 v 0.8928 q 0,0.1953 -0.12555,0.32085 -0.12555,0.12555 -0.32085,0.12555 h -9.8208 q -0.1953,0 -0.32085,-0.12555 -0.12555,-0.12555 -0.12555,-0.32085 v -0.8928 q 0,-0.1953 0.12555,-0.32085 0.12555,-0.12555 0.32085,-0.12555 h 9.8208 q 0.1953,0 0.32085,0.12555 0.12555,0.12555 0.12555,0.32085 z m 0,-3.5712 v 0.8928 q 0,0.1953 -0.12555,0.32085 -0.12555,0.12555 -0.32085,0.12555 h -9.8208 q -0.1953,0 -0.32085,-0.12555 -0.12555,-0.12555 -0.12555,-0.32085 v -0.8928 q 0,-0.1953 0.12555,-0.32085 0.12555,-0.12555 0.32085,-0.12555 h 9.8208 q 0.1953,0 0.32085,0.12555 0.12555,0.12555 0.12555,0.32085 z m -12.4992,8.48159 h 14.2848 v -10.71359 h -5.8032 q -0.558,0 -0.9486,-0.3906 -0.3906,-0.3906 -0.3906,-0.9486 v -5.8032 h -7.1424 v 17.85599 z m 8.928,-12.49919 h 5.2452 q -0.1395,-0.40455 -0.3069,-0.57195 l -4.36635,-4.36635 q -0.1674,-0.1674 -0.57195,-0.3069 v 5.2452 z m 7.1424,0.4464 v 12.49919 q 0,0.558 -0.3906,0.9486 -0.3906,0.3906 -0.9486,0.3906 h -15.1776 q -0.558,0 -0.9486,-0.3906 -0.3906,-0.3906 -0.3906,-0.9486 v -18.74879 q 0,-0.558 0.3906,-0.9486 0.3906,-0.3906 0.9486,-0.3906 h 8.928 q 0.558,0 1.2276,0.279 0.6696,0.279 1.0602,0.6696 l 4.3524,4.3524 q 0.3906,0.3906 0.6696,1.0602 0.279,0.6696 0.279,1.2276 z"
       inkscape:connector-curvature="0" />
    <path
       style="fill:none;stroke:#000000;stroke-width:1;stroke-linecap:butt;stroke-linejoin:miter;stroke-miterlimit:4;stroke-opacity:1;stroke-dasharray:none;marker-start:none;marker-end:url(#Arrow2Mend-5)"
       d="m 210.52257,57.654965 15,0"
       id="path3781-7-4-4"
       inkscape:connector-curvature="0"
       sodipodi:nodetypes="cc" />
    <text
       xml:space="preserve"
       style="font-size:12px;font-style:normal;font-variant:normal;font-weight:normal;font-stretch:normal;text-align:center;line-height:125%;letter-spacing:0px;word-spacing:0px;writing-mode:lr-tb;text-anchor:middle;fill:#000000;fill-opacity:1;stroke:none;font-family:Arial;-inkscape-font-specification:Arial"
       x="265.52258"
       y="62.654964"
       id="text3755-1-3-1"
       sodipodi:linespacing="125%"><tspan
         sodipodi:role="line"
         x="265.52258"
         y="62.654964"
         id="tspan5353-0">Traces</tspan></text>
    <path
       style="fill:none;stroke:#000000;stroke-width:1;stroke-linecap:butt;stroke-linejoin:miter;stroke-miterlimit:4;stroke-opacity:1;stroke-dasharray:none;marker-start:none;marker-end:url(#Arrow2Mend-5)"
       d="m 235.52257,67.654965 0,24.999997 -25,0"
       id="path3781-7-4-4-1"
       inkscape:connector-curvature="0"
       sodipodi:nodetypes="ccc" />
    <path
       style="fill:none;stroke:#000000;stroke-width:1;stroke-linecap:butt;stroke-linejoin:miter;stroke-miterlimit:4;stroke-opacity:1;stroke-dasharray:none;marker-start:none;marker-end:url(#Arrow2Mend-5)"
       d="m 125.52257,92.654962 -15,0"
       id="path3781-7-4-4-1-3"
       inkscape:connector-curvature="0"
       sodipodi:nodetypes="cc" />
    <path
       id="path5296-9-0"
       d="m 106.54923,97.278322 v 0.8928 q 0,0.1953 -0.12555,0.32085 -0.12555,0.12555 -0.32085,0.12555 h -9.820798 q -0.1953,0 -0.32085,-0.12555 -0.12555,-0.12555 -0.12555,-0.32085 v -0.8928 q 0,-0.1953 0.12555,-0.32085 0.12555,-0.12555 0.32085,-0.12555 h 9.820798 q 0.1953,0 0.32085,0.12555 0.12555,0.12555 0.12555,0.32085 z m 0,-3.5712 v 0.8928 q 0,0.1953 -0.12555,0.32085 -0.12555,0.12555 -0.32085,0.12555 h -9.820798 q -0.1953,0 -0.32085,-0.12555 -0.12555,-0.12555 -0.12555,-0.32085 v -0.8928 q 0,-0.1953 0.12555,-0.32085 0.12555,-0.12555 0.32085,-0.12555 h 9.820798 q 0.1953,0 0.32085,0.12555 0.12555,0.12555 0.12555,0.32085 z M 94.050032,102.18871 H 108.33483 V 91.475122 h -5.8032 q -0.558,0 -0.9486,-0.3906 -0.3906,-0.3906 -0.3906,-0.9486 v -5.8032 h -7.142398 v 17.855988 z m 8.927998,-12.499188 h 5.2452 q -0.1395,-0.40455 -0.3069,-0.57195 l -4.36635,-4.36635 q -0.1674,-0.1674 -0.57195,-0.3069 v 5.2452 z m 7.1424,0.4464 v 12.499188 q 0,0.558 -0.3906,0.9486 -0.3906,0.3906 -0.9486,0.3906 H 93.603632 q -0.558,0 -0.9486,-0.3906 -0.3906,-0.3906 -0.3906,-0.9486 V 83.886322 q 0,-0.558 0.3906,-0.9486 0.3906,-0.3906 0.9486,-0.3906 h 8.927998 q 0.558,0 1.2276,0.279 0.6696,0.279 1.0602,0.6696 l 4.3524,4.3524 q 0.3906,0.3906 0.6696,1.0602 0.279,0.6696 0.279,1.2276 z"
       inkscape:connector-curvature="0" />
    <text
       xml:space="preserve"
       style="font-size:12px;font-style:normal;font-variant:normal;font-weight:normal;font-stretch:normal;text-align:center;line-height:125%;letter-spacing:0px;word-spacing:0px;writing-mode:lr-tb;text-anchor:middle;fill:#000000;fill-opacity:1;stroke:none;font-family:Arial;-inkscape-font-specification:Arial"
       x="45.522572"
       y="97.654961"
       id="text3755-1-3-1-8"
       sodipodi:linespacing="125%"><tspan
         sodipodi:role="line"
         x="45.522572"
         y="97.654961"
         id="tspan5353-0-5">Checked traces</tspan></text>
    <rect
       style="fill:none;stroke:#000000;stroke-width:1px;stroke-linecap:butt;stroke-linejoin:miter;stroke-opacity:1"
       id="rect2985-7-2"
       width="85"
       height="20"
       x="30.406551"
       y="7.8855782"
       ry="0" />
    <text
       xml:space="preserve"
       style="font-size:12px;font-style:normal;font-variant:normal;font-weight:normal;font-stretch:normal;text-align:center;line-height:125%;letter-spacing:0px;word-spacing:0px;writing-mode:lr-tb;text-anchor:middle;fill:#000000;fill-opacity:1;stroke:none;font-family:Arial;-inkscape-font-specification:Arial"
       x="72.232338"
       y="22.654964"
       id="text3755-1-6-8"
       sodipodi:linespacing="125%"><tspan
         sodipodi:role="line"
         x="72.232338"
         y="22.654964"
         id="tspan3759-9-2-1">Test generator</tspan></text>
    <path
       style="fill:none;stroke:#000000;stroke-width:1;stroke-linecap:butt;stroke-linejoin:miter;stroke-miterlimit:4;stroke-opacity:1;stroke-dasharray:none;marker-start:none;marker-end:url(#Arrow2Mend-5)"
       d="m 70.522572,27.654965 20,15"
       id="path3781-7-4-6"
       inkscape:connector-curvature="0"
       sodipodi:nodetypes="cc" />
    <text
       xml:space="preserve"
       style="font-size:12px;font-style:normal;font-variant:normal;font-weight:normal;font-stretch:normal;text-align:center;line-height:125%;letter-spacing:0px;word-spacing:0px;writing-mode:lr-tb;text-anchor:middle;fill:#000000;fill-opacity:1;stroke:none;font-family:Arial;-inkscape-font-specification:Arial"
       x="215.52257"
       y="22.654964"
       id="text3755-1-6-8-2"
       sodipodi:linespacing="125%"><tspan
         sodipodi:role="line"
         x="215.52257"
         y="22.654964"
         id="tspan3759-9-2-1-0">Handwritten test scripts</tspan></text>
    <path
       style="fill:none;stroke:#000000;stroke-width:1;stroke-linecap:butt;stroke-linejoin:miter;stroke-miterlimit:4;stroke-opacity:1;stroke-dasharray:none;marker-start:none;marker-end:url(#Arrow2Mend-5)"
       d="m 130.52257,27.654965 -25,15"
       id="path3781-7-4-6-8"
       inkscape:connector-curvature="0"
       sodipodi:nodetypes="cc" />
    <path
       style="fill:none;stroke:#000000;stroke-width:1;stroke-linecap:butt;stroke-linejoin:miter;stroke-miterlimit:4;stroke-opacity:1;stroke-dasharray:none;marker-start:none;marker-end:url(#Arrow2Mend-5)"
       d="m 109.85998,57.654966 15,0"
       id="path3781-7-4-4-8"
       inkscape:connector-curvature="0"
       sodipodi:nodetypes="cc" />
    <path
       id="path5296-0"
       d="m 144.71015,22.515481 v 0.8928 q 0,0.1953 -0.12555,0.32085 -0.12555,0.12555 -0.32085,0.12555 h -9.8208 q -0.1953,0 -0.32085,-0.12555 -0.12555,-0.12555 -0.12555,-0.32085 v -0.8928 q 0,-0.1953 0.12555,-0.32085 0.12555,-0.12555 0.32085,-0.12555 h 9.8208 q 0.1953,0 0.32085,0.12555 0.12555,0.12555 0.12555,0.32085 z m 0,-3.571203 v 0.892803 q 0,0.1953 -0.12555,0.32085 -0.12555,0.12555 -0.32085,0.12555 h -9.8208 q -0.1953,0 -0.32085,-0.12555 -0.12555,-0.12555 -0.12555,-0.32085 v -0.892803 q 0,-0.1953 0.12555,-0.32085 0.12555,-0.12555 0.32085,-0.12555 h 9.8208 q 0.1953,0 0.32085,0.12555 0.12555,0.12555 0.12555,0.32085 z m -12.4992,8.481593 h 14.2848 V 16.712278 h -5.8032 q -0.558,0 -0.9486,-0.3906 -0.3906,-0.3906 -0.3906,-0.9486 V 9.5698777 h -7.1424 V 27.425871 z m 8.928,-12.499193 h 5.2452 q -0.1395,-0.40455 -0.3069,-0.57195 L 141.7109,9.9883777 q -0.1674,-0.1674 -0.57195,-0.3069 v 5.2452003 z m 7.1424,0.4464 v 12.499193 q 0,0.558 -0.3906,0.9486 -0.3906,0.3906 -0.9486,0.3906 h -15.1776 q -0.558,0 -0.9486,-0.3906 -0.3906,-0.3906 -0.3906,-0.9486 V 9.1234777 q 0,-0.558 0.3906,-0.9486 0.3906,-0.3906 0.9486,-0.3906 h 8.928 q 0.558,0 1.2276,0.279 0.6696,0.279 1.0602,0.6696 l 4.3524,4.3524003 q 0.3906,0.3906 0.6696,1.0602 0.279,0.6696 0.279,1.2276 z"
       inkscape:connector-curvature="0" />
  </g>
</svg>
